<svg width="864" height="274" xmlns="http://www.w3.org/2000/svg" xmlns:xlink="http://www.w3.org/1999/xlink">
  <defs>
    <path id="b" d="M62 118h169v50H62z"/>
    <filter x="-9.5%" y="-28%" width="118.9%" height="164%" filterUnits="objectBoundingBox" id="a">
      <feOffset dy="2" in="SourceAlpha" result="shadowOffsetOuter1"/>
      <feGaussianBlur stdDeviation="5" in="shadowOffsetOuter1" result="shadowBlurOuter1"/>
      <feColorMatrix values="0 0 0 0 0 0 0 0 0 0 0 0 0 0 0 0 0 0 0.5 0" in="shadowBlurOuter1"/>
    </filter>
    <path id="d" d="M327 118h169v50H327z"/>
    <filter x="-9.5%" y="-28%" width="118.9%" height="164%" filterUnits="objectBoundingBox" id="c">
      <feOffset dy="2" in="SourceAlpha" result="shadowOffsetOuter1"/>
      <feGaussianBlur stdDeviation="5" in="shadowOffsetOuter1" result="shadowBlurOuter1"/>
      <feColorMatrix values="0 0 0 0 0 0 0 0 0 0 0 0 0 0 0 0 0 0 0.5 0" in="shadowBlurOuter1"/>
    </filter>
    <path id="f" d="M579 118h223v50H579z"/>
    <filter x="-7.2%" y="-28%" width="114.3%" height="164%" filterUnits="objectBoundingBox" id="e">
      <feOffset dy="2" in="SourceAlpha" result="shadowOffsetOuter1"/>
      <feGaussianBlur stdDeviation="5" in="shadowOffsetOuter1" result="shadowBlurOuter1"/>
      <feColorMatrix values="0 0 0 0 0 0 0 0 0 0 0 0 0 0 0 0 0 0 0.5 0" in="shadowBlurOuter1"/>
    </filter>
  </defs>
  <g fill="none" fill-rule="evenodd">
    <path d="M162 134.5v64.07M394.215 200H162m501 0H431" stroke="#69A6FF" stroke-width="2" stroke-linecap="square"/>
    <path d="M260.61 89H161m359.61 0H421m-24.39 0H297m359.61 0H557" stroke="#003BC9" stroke-width="2" stroke-linecap="square"/>
    <path d="M663 134.5v64.07" stroke="#69A6FF" stroke-width="2" stroke-linecap="square"/>
    <path fill="#F8F4F2" d="M62 55h169v65H62zm265 0h169v65H327zm252 0h223v65H579z"/>
    <path d="M86.266 83v-1.036h-4.788v-3.612h4.508v-1.036h-4.508v-3.052h4.788v-1.036h-5.964V83h5.964zm6.706 0v-1.176h-.056c-.434.896-1.12 1.344-2.114 1.344-1.806 0-2.94-1.47-2.94-3.78 0-2.31 1.134-3.78 2.94-3.78.994 0 1.736.434 2.114 1.344h.056V72.64h1.12V83h-1.12zm-1.862-.84c1.022 0 1.862-.532 1.862-1.47v-2.688c0-.798-.84-1.386-1.862-1.386-1.26 0-2.044.868-2.044 2.156v1.232c0 1.288.784 2.156 2.044 2.156zm5.922-8.078c.476 0 .686-.252.686-.63v-.182c0-.378-.21-.63-.686-.63-.476 0-.686.252-.686.63v.182c0 .378.21.63.686.63zM96.472 83h1.12v-7.224h-1.12V83zm6.496 0v-.98h-1.47v-5.264h1.582v-.98h-1.582v-2.002h-1.008v1.344c0 .49-.154.658-.63.658h-.672v.98h1.19v5.054c0 .7.42 1.19 1.19 1.19h1.4zm11.102 0h-.63c-.826 0-1.162-.504-1.246-1.176h-.07c-.308.882-1.078 1.344-2.086 1.344-1.526 0-2.422-.84-2.422-2.184 0-1.358.98-2.114 3.08-2.114h1.428v-.714c0-1.022-.56-1.582-1.708-1.582-.868 0-1.442.42-1.834 1.078l-.672-.63c.392-.77 1.26-1.414 2.562-1.414 1.736 0 2.772.91 2.772 2.436v3.976h.826V83zm-3.85-.784c1.106 0 1.904-.574 1.904-1.316v-1.19h-1.484c-1.274 0-1.848.392-1.848 1.092v.294c0 .714.56 1.12 1.428 1.12zm8.862.784v-9.772h4.018c1.61 0 2.604.994 2.604 2.52 0 1.456-.938 1.974-1.582 2.072v.084c.7.042 1.918.644 1.918 2.268 0 1.61-1.078 2.828-2.52 2.828h-4.438zm1.176-4.536v3.5h2.898c1.008 0 1.624-.532 1.624-1.512v-.476c0-.98-.616-1.512-1.624-1.512h-2.898zm0-4.2v3.192h2.702c.924 0 1.484-.49 1.484-1.358v-.476c0-.868-.56-1.358-1.484-1.358h-2.702zM132.564 83h1.12v-7.224h-1.12v4.998c0 .952-.868 1.386-1.75 1.386-1.078 0-1.652-.658-1.652-1.946v-4.438h-1.12v4.634c0 1.75.952 2.758 2.436 2.758 1.204 0 1.75-.658 2.03-1.344h.056V83zm5.67.168c1.652 0 2.674-.854 2.674-2.254 0-1.092-.616-1.792-2.212-2.03l-.56-.084c-.896-.14-1.386-.42-1.386-1.12 0-.686.49-1.12 1.414-1.12.924 0 1.54.434 1.862.882l.742-.672c-.588-.728-1.358-1.162-2.52-1.162-1.47 0-2.576.7-2.576 2.128 0 1.344.994 1.89 2.324 2.086l.574.084c.952.14 1.26.574 1.26 1.134 0 .742-.56 1.176-1.512 1.176-.91 0-1.582-.406-2.142-1.106l-.798.644c.644.854 1.526 1.414 2.856 1.414zm5.208-9.086c.476 0 .686-.252.686-.63v-.182c0-.378-.21-.63-.686-.63-.476 0-.686.252-.686.63v.182c0 .378.21.63.686.63zm-.56 8.918h1.12v-7.224h-1.12V83zm4.62 0v-5.012c0-.924.868-1.372 1.764-1.372 1.078 0 1.638.658 1.638 1.946V83h1.12v-4.634c0-1.75-.938-2.758-2.422-2.758-1.078 0-1.694.532-2.044 1.344h-.056v-1.176h-1.12V83h1.12zm9.548.168c-1.96 0-3.248-1.484-3.248-3.78s1.288-3.78 3.248-3.78c1.932 0 3.122 1.484 3.122 3.528v.532h-5.194v.336c0 1.246.798 2.184 2.142 2.184.91 0 1.61-.448 1.988-1.246l.798.574c-.462.98-1.498 1.652-2.856 1.652zm0-6.622c-1.218 0-2.072.924-2.072 2.184v.098h3.99v-.154c0-1.274-.77-2.128-1.918-2.128zm7.14 6.622c1.652 0 2.674-.854 2.674-2.254 0-1.092-.616-1.792-2.212-2.03l-.56-.084c-.896-.14-1.386-.42-1.386-1.12 0-.686.49-1.12 1.414-1.12.924 0 1.54.434 1.862.882l.742-.672c-.588-.728-1.358-1.162-2.52-1.162-1.47 0-2.576.7-2.576 2.128 0 1.344.994 1.89 2.324 2.086l.574.084c.952.14 1.26.574 1.26 1.134 0 .742-.56 1.176-1.512 1.176-.91 0-1.582-.406-2.142-1.106l-.798.644c.644.854 1.526 1.414 2.856 1.414zm6.818 0c1.652 0 2.674-.854 2.674-2.254 0-1.092-.616-1.792-2.212-2.03l-.56-.084c-.896-.14-1.386-.42-1.386-1.12 0-.686.49-1.12 1.414-1.12.924 0 1.54.434 1.862.882l.742-.672c-.588-.728-1.358-1.162-2.52-1.162-1.47 0-2.576.7-2.576 2.128 0 1.344.994 1.89 2.324 2.086l.574.084c.952.14 1.26.574 1.26 1.134 0 .742-.56 1.176-1.512 1.176-.91 0-1.582-.406-2.142-1.106l-.798.644c.644.854 1.526 1.414 2.856 1.414zM86.238 101h1.358v-9.772h-1.148v8.134h-.042l-1.176-2.17-3.57-5.964h-1.358V101h1.148v-8.134h.042l1.176 2.17 3.57 5.964zm6.566.168c-1.96 0-3.248-1.484-3.248-3.78s1.288-3.78 3.248-3.78c1.932 0 3.122 1.484 3.122 3.528v.532h-5.194v.336c0 1.246.798 2.184 2.142 2.184.91 0 1.61-.448 1.988-1.246l.798.574c-.462.98-1.498 1.652-2.856 1.652zm0-6.622c-1.218 0-2.072.924-2.072 2.184v.098h3.99v-.154c0-1.274-.77-2.128-1.918-2.128zM100.77 101v-.98H99.3v-5.264h1.582v-.98H99.3v-2.002h-1.008v1.344c0 .49-.154.658-.63.658h-.672v.98h1.19v5.054c0 .7.42 1.19 1.19 1.19h1.4zm3.094 0h1.358l1.008-3.472.616-2.198h.028l.63 2.198 1.008 3.472h1.386l1.918-7.224h-1.05l-.784 3.122-.742 3.164h-.028l-.896-3.164-.938-3.122h-.994l-.91 3.122-.882 3.164h-.028l-.77-3.164-.77-3.122h-1.092l1.932 7.224zm12.306.168c-1.932 0-3.262-1.484-3.262-3.78s1.33-3.78 3.262-3.78 3.262 1.484 3.262 3.78-1.33 3.78-3.262 3.78zm0-.994c1.204 0 2.058-.742 2.058-2.268V96.87c0-1.526-.854-2.268-2.058-2.268-1.204 0-2.058.742-2.058 2.268v1.036c0 1.526.854 2.268 2.058 2.268zm6.23.826v-4.9c0-.686.728-1.204 1.932-1.204h.658v-1.12h-.434c-1.176 0-1.834.644-2.086 1.33h-.07v-1.33h-1.12V101h1.12zm4.018 0h1.12v-2.576l1.078-1.106L131.01 101h1.358l-2.94-4.368 2.674-2.856h-1.358l-2.044 2.198-1.106 1.232h-.056V90.64h-1.12V101zm10.794 0v-9.772h3.276c2.436 0 4.004 1.624 4.004 4.886S142.924 101 140.488 101h-3.276zm1.176-1.036h2.1c1.61 0 2.744-1.12 2.744-3.052v-1.596c0-1.932-1.134-3.052-2.744-3.052h-2.1v7.7zm10.822 1.204c-1.96 0-3.248-1.484-3.248-3.78s1.288-3.78 3.248-3.78c1.932 0 3.122 1.484 3.122 3.528v.532h-5.194v.336c0 1.246.798 2.184 2.142 2.184.91 0 1.61-.448 1.988-1.246l.798.574c-.462.98-1.498 1.652-2.856 1.652zm0-6.622c-1.218 0-2.072.924-2.072 2.184v.098h3.99v-.154c0-1.274-.77-2.128-1.918-2.128zm5.362 6.454v-6.244h-1.176v-.98h1.176V92.32c0-.994.518-1.68 1.582-1.68h1.092v.98h-1.554v2.156h4.046V101h-1.12v-6.244h-2.926V101h-1.12zm4.606-8.918c-.476 0-.686-.252-.686-.63v-.182c0-.378.21-.63.686-.63.476 0 .686.252.686.63v.182c0 .378-.21.63-.686.63zm4.06 8.918v-5.012c0-.924.868-1.372 1.764-1.372 1.078 0 1.638.658 1.638 1.946V101h1.12v-4.634c0-1.75-.938-2.758-2.422-2.758-1.078 0-1.694.532-2.044 1.344h-.056v-1.176h-1.12V101h1.12zm7.392-8.918c.476 0 .686-.252.686-.63v-.182c0-.378-.21-.63-.686-.63-.476 0-.686.252-.686.63v.182c0 .378.21.63.686.63zm-.56 8.918h1.12v-7.224h-1.12V101zm6.496 0v-.98h-1.47v-5.264h1.582v-.98h-1.582v-2.002h-1.008v1.344c0 .49-.154.658-.63.658h-.672v.98h1.19v5.054c0 .7.42 1.19 1.19 1.19h1.4zm2.478-8.918c.476 0 .686-.252.686-.63v-.182c0-.378-.21-.63-.686-.63-.476 0-.686.252-.686.63v.182c0 .378.21.63.686.63zm-.56 8.918h1.12v-7.224h-1.12V101zm6.23.168c-1.932 0-3.262-1.484-3.262-3.78s1.33-3.78 3.262-3.78 3.262 1.484 3.262 3.78-1.33 3.78-3.262 3.78zm0-.994c1.204 0 2.058-.742 2.058-2.268V96.87c0-1.526-.854-2.268-2.058-2.268-1.204 0-2.058.742-2.058 2.268v1.036c0 1.526.854 2.268 2.058 2.268zm6.23.826v-5.012c0-.924.868-1.372 1.764-1.372 1.078 0 1.638.658 1.638 1.946V101h1.12v-4.634c0-1.75-.938-2.758-2.422-2.758-1.078 0-1.694.532-2.044 1.344h-.056v-1.176h-1.12V101h1.12zm155.534-18h-1.176v-9.772h3.892c1.75 0 2.73 1.078 2.73 2.8 0 1.722-.98 2.8-2.73 2.8h-2.716V83zm0-8.736v3.528h2.716c.924 0 1.47-.504 1.47-1.4v-.728c0-.896-.546-1.4-1.47-1.4h-2.716zM359.554 83h-.63c-.826 0-1.162-.504-1.246-1.176h-.07c-.308.882-1.078 1.344-2.086 1.344-1.526 0-2.422-.84-2.422-2.184 0-1.358.98-2.114 3.08-2.114h1.428v-.714c0-1.022-.56-1.582-1.708-1.582-.868 0-1.442.42-1.834 1.078l-.672-.63c.392-.77 1.26-1.414 2.562-1.414 1.736 0 2.772.91 2.772 2.436v3.976h.826V83zm-3.85-.784c1.106 0 1.904-.574 1.904-1.316v-1.19h-1.484c-1.274 0-1.848.392-1.848 1.092v.294c0 .714.56 1.12 1.428 1.12zm8.134.952c1.372 0 2.31-.672 2.772-1.708l-.812-.546c-.392.826-1.05 1.26-1.96 1.26-1.33 0-2.016-.91-2.016-2.17v-1.232c0-1.26.686-2.17 2.016-2.17.882 0 1.498.434 1.764 1.176l.938-.476c-.42-.994-1.274-1.694-2.702-1.694-2.03 0-3.22 1.47-3.22 3.78 0 2.31 1.19 3.78 3.22 3.78zm4.354-.168h1.12v-2.576l1.078-1.106L372.784 83h1.358l-2.94-4.368 2.674-2.856h-1.358l-2.044 2.198-1.106 1.232h-.056V72.64h-1.12V83zm13.258 0h-.63c-.826 0-1.162-.504-1.246-1.176h-.07c-.308.882-1.078 1.344-2.086 1.344-1.526 0-2.422-.84-2.422-2.184 0-1.358.98-2.114 3.08-2.114h1.428v-.714c0-1.022-.56-1.582-1.708-1.582-.868 0-1.442.42-1.834 1.078l-.672-.63c.392-.77 1.26-1.414 2.562-1.414 1.736 0 2.772.91 2.772 2.436v3.976h.826V83zm-3.85-.784c1.106 0 1.904-.574 1.904-1.316v-1.19h-1.484c-1.274 0-1.848.392-1.848 1.092v.294c0 .714.56 1.12 1.428 1.12zm11.536 1.582c0 1.484-1.176 2.17-3.5 2.17-2.254 0-3.178-.644-3.178-1.778 0-.784.434-1.204 1.148-1.4v-.154c-.406-.196-.644-.518-.644-1.008 0-.728.518-1.078 1.246-1.26v-.056c-.854-.406-1.358-1.204-1.358-2.212 0-1.47 1.078-2.492 2.716-2.492.518 0 .98.098 1.372.28v-.126c0-.56.238-.966.84-.966h1.078v.98h-1.372v.462c.518.448.826 1.092.826 1.862 0 1.47-1.078 2.492-2.73 2.492-.238 0-.49-.028-.7-.07-.476.126-.952.364-.952.812 0 .434.448.546 1.106.546h1.54c1.792 0 2.562.728 2.562 1.918zm-1.05.084c0-.574-.378-.952-1.498-.952h-2.408c-.462.21-.672.532-.672.98 0 .63.434 1.148 1.568 1.148h1.036c1.246 0 1.974-.392 1.974-1.176zm-2.506-4.186c.952 0 1.554-.448 1.554-1.4v-.392c0-.952-.602-1.4-1.554-1.4-.952 0-1.554.448-1.554 1.4v.392c0 .952.602 1.4 1.554 1.4zm7.574 3.472c-1.96 0-3.248-1.484-3.248-3.78s1.288-3.78 3.248-3.78c1.932 0 3.122 1.484 3.122 3.528v.532h-5.194v.336c0 1.246.798 2.184 2.142 2.184.91 0 1.61-.448 1.988-1.246l.798.574c-.462.98-1.498 1.652-2.856 1.652zm0-6.622c-1.218 0-2.072.924-2.072 2.184v.098h3.99v-.154c0-1.274-.77-2.128-1.918-2.128zm8.834-2.464c.476 0 .686-.252.686-.63v-.182c0-.378-.21-.63-.686-.63-.476 0-.686.252-.686.63v.182c0 .378.21.63.686.63zm-.56 8.918h1.12v-7.224h-1.12V83zm6.496 0v-.98h-1.47v-5.264h1.582v-.98h-1.582v-2.002h-1.008v1.344c0 .49-.154.658-.63.658h-.672v.98h1.19v5.054c0 .7.42 1.19 1.19 1.19h1.4zm11.102 0h-.63c-.826 0-1.162-.504-1.246-1.176h-.07c-.308.882-1.078 1.344-2.086 1.344-1.526 0-2.422-.84-2.422-2.184 0-1.358.98-2.114 3.08-2.114h1.428v-.714c0-1.022-.56-1.582-1.708-1.582-.868 0-1.442.42-1.834 1.078l-.672-.63c.392-.77 1.26-1.414 2.562-1.414 1.736 0 2.772.91 2.772 2.436v3.976h.826V83zm-3.85-.784c1.106 0 1.904-.574 1.904-1.316v-1.19h-1.484c-1.274 0-1.848.392-1.848 1.092v.294c0 .714.56 1.12 1.428 1.12zm7.616.952c1.652 0 2.674-.854 2.674-2.254 0-1.092-.616-1.792-2.212-2.03l-.56-.084c-.896-.14-1.386-.42-1.386-1.12 0-.686.49-1.12 1.414-1.12.924 0 1.54.434 1.862.882l.742-.672c-.588-.728-1.358-1.162-2.52-1.162-1.47 0-2.576.7-2.576 2.128 0 1.344.994 1.89 2.324 2.086l.574.084c.952.14 1.26.574 1.26 1.134 0 .742-.56 1.176-1.512 1.176-.91 0-1.582-.406-2.142-1.106l-.798.644c.644.854 1.526 1.414 2.856 1.414zM436.624 83h-.63c-.826 0-1.162-.504-1.246-1.176h-.07c-.308.882-1.078 1.344-2.086 1.344-1.526 0-2.422-.84-2.422-2.184 0-1.358.98-2.114 3.08-2.114h1.428v-.714c0-1.022-.56-1.582-1.708-1.582-.868 0-1.442.42-1.834 1.078l-.672-.63c.392-.77 1.26-1.414 2.562-1.414 1.736 0 2.772.91 2.772 2.436v3.976h.826V83zm-3.85-.784c1.106 0 1.904-.574 1.904-1.316v-1.19h-1.484c-1.274 0-1.848.392-1.848 1.092v.294c0 .714.56 1.12 1.428 1.12zm-86.87 18.952c.588 0 .854-.336.854-.812v-.182c0-.476-.266-.812-.854-.812s-.854.336-.854.812v.182c0 .476.266.812.854.812zm3.094-.168V90.64h1.12v4.312h.056c.378-.91 1.12-1.344 2.114-1.344 1.806 0 2.94 1.47 2.94 3.78 0 2.31-1.134 3.78-2.94 3.78-.994 0-1.68-.448-2.114-1.344h-.056V101h-1.12zm2.982-.84c1.26 0 2.044-.868 2.044-2.156v-1.232c0-1.288-.784-2.156-2.044-2.156-1.022 0-1.862.588-1.862 1.386v2.688c0 .938.84 1.47 1.862 1.47zm6.258.84v-5.012c0-.924.868-1.372 1.764-1.372 1.078 0 1.638.658 1.638 1.946V101h1.12v-4.634c0-1.75-.938-2.758-2.422-2.758-1.078 0-1.694.532-2.044 1.344h-.056v-1.176h-1.12V101h1.12zm12.712 0h-.63c-.826 0-1.162-.504-1.246-1.176h-.07c-.308.882-1.078 1.344-2.086 1.344-1.526 0-2.422-.84-2.422-2.184 0-1.358.98-2.114 3.08-2.114h1.428v-.714c0-1.022-.56-1.582-1.708-1.582-.868 0-1.442.42-1.834 1.078l-.672-.63c.392-.77 1.26-1.414 2.562-1.414 1.736 0 2.772.91 2.772 2.436v3.976h.826v.98zm-3.85-.784c1.106 0 1.904-.574 1.904-1.316v-1.19h-1.484c-1.274 0-1.848.392-1.848 1.092v.294c0 .714.56 1.12 1.428 1.12zm9.142.784v-6.244h-1.176v-.98h1.176V92.32c0-.994.518-1.68 1.582-1.68h1.092v.98h-1.554v2.156h4.046V101h-1.12v-6.244h-2.926V101h-1.12zm4.606-8.918c-.476 0-.686-.252-.686-.63v-.182c0-.378.21-.63.686-.63.476 0 .686.252.686.63v.182c0 .378-.21.63-.686.63zm5.124 8.918v-.98h-1.064v-9.38h-1.12v9.198c0 .672.42 1.162 1.19 1.162h.994zm4.34.168c-1.96 0-3.248-1.484-3.248-3.78s1.288-3.78 3.248-3.78c1.932 0 3.122 1.484 3.122 3.528v.532h-5.194v.336c0 1.246.798 2.184 2.142 2.184.91 0 1.61-.448 1.988-1.246l.798.574c-.462.98-1.498 1.652-2.856 1.652zm0-6.622c-1.218 0-2.072.924-2.072 2.184v.098h3.99v-.154c0-1.274-.77-2.128-1.918-2.128zM597.302 83v-9.772h3.276c2.436 0 4.004 1.624 4.004 4.886S603.014 83 600.578 83h-3.276zm1.176-1.036h2.1c1.61 0 2.744-1.12 2.744-3.052v-1.596c0-1.932-1.134-3.052-2.744-3.052h-2.1v7.7zm10.822 1.204c-1.96 0-3.248-1.484-3.248-3.78s1.288-3.78 3.248-3.78c1.932 0 3.122 1.484 3.122 3.528v.532h-5.194v.336c0 1.246.798 2.184 2.142 2.184.91 0 1.61-.448 1.988-1.246l.798.574c-.462.98-1.498 1.652-2.856 1.652zm0-6.622c-1.218 0-2.072.924-2.072 2.184v.098h3.99v-.154c0-1.274-.77-2.128-1.918-2.128zm4.97 9.254V75.776h1.12v1.176h.056c.378-.91 1.12-1.344 2.114-1.344 1.806 0 2.94 1.47 2.94 3.78 0 2.31-1.134 3.78-2.94 3.78-.994 0-1.68-.448-2.114-1.344h-.056V85.8h-1.12zm2.982-3.64c1.26 0 2.044-.868 2.044-2.156v-1.232c0-1.288-.784-2.156-2.044-2.156-1.022 0-1.862.588-1.862 1.386v2.688c0 .938.84 1.47 1.862 1.47zm7.322.84v-.98h-1.064v-9.38h-1.12v9.198c0 .672.42 1.162 1.19 1.162h.994zm4.354.168c-1.932 0-3.262-1.484-3.262-3.78s1.33-3.78 3.262-3.78 3.262 1.484 3.262 3.78-1.33 3.78-3.262 3.78zm0-.994c1.204 0 2.058-.742 2.058-2.268V78.87c0-1.526-.854-2.268-2.058-2.268-1.204 0-2.058.742-2.058 2.268v1.036c0 1.526.854 2.268 2.058 2.268zm7.812-1.484l-.392 1.176h-.07l-.336-1.176-1.736-4.914h-1.12l2.702 7.504-.546 1.54h-1.134v.98h.574c1.064 0 1.358-.252 1.68-1.12l3.234-8.904h-1.106l-1.75 4.914zm8.148-6.608c.476 0 .686-.252.686-.63v-.182c0-.378-.21-.63-.686-.63-.476 0-.686.252-.686.63v.182c0 .378.21.63.686.63zm-.56 8.918h1.12v-7.224h-1.12V83zm6.496 0v-.98h-1.47v-5.264h1.582v-.98h-1.582v-2.002h-1.008v1.344c0 .49-.154.658-.63.658h-.672v.98h1.19v5.054c0 .7.42 1.19 1.19 1.19h1.4zm8.218 0v-.98h-1.47v-5.264h1.582v-.98h-1.582v-2.002h-1.008v1.344c0 .49-.154.658-.63.658h-.672v.98h1.19v5.054c0 .7.42 1.19 1.19 1.19h1.4zm4.648.168c-1.932 0-3.262-1.484-3.262-3.78s1.33-3.78 3.262-3.78 3.262 1.484 3.262 3.78-1.33 3.78-3.262 3.78zm0-.994c1.204 0 2.058-.742 2.058-2.268V78.87c0-1.526-.854-2.268-2.058-2.268-1.204 0-2.058.742-2.058 2.268v1.036c0 1.526.854 2.268 2.058 2.268zM675.1 83v-.98h-1.47v-5.264h1.582v-.98h-1.582v-2.002h-1.008v1.344c0 .49-.154.658-.63.658h-.672v.98h1.19v5.054c0 .7.42 1.19 1.19 1.19h1.4zm1.918 0h1.12v-5.012c0-.924.868-1.372 1.764-1.372 1.078 0 1.638.658 1.638 1.946V83h1.12v-4.634c0-1.75-.938-2.758-2.422-2.758-1.078 0-1.694.532-2.044 1.344h-.056V72.64h-1.12V83zm10.668.168c-1.96 0-3.248-1.484-3.248-3.78s1.288-3.78 3.248-3.78c1.932 0 3.122 1.484 3.122 3.528v.532h-5.194v.336c0 1.246.798 2.184 2.142 2.184.91 0 1.61-.448 1.988-1.246l.798.574c-.462.98-1.498 1.652-2.856 1.652zm0-6.622c-1.218 0-2.072.924-2.072 2.184v.098h3.99v-.154c0-1.274-.77-2.128-1.918-2.128zM699.53 83v-.98h-1.372v-7.812h1.372v-.98h-3.92v.98h1.372v7.812h-1.372V83h3.92zm2.142 0v-9.772h4.018c1.61 0 2.604.994 2.604 2.52 0 1.456-.938 1.974-1.582 2.072v.084c.7.042 1.918.644 1.918 2.268 0 1.61-1.078 2.828-2.52 2.828h-4.438zm1.176-4.536v3.5h2.898c1.008 0 1.624-.532 1.624-1.512v-.476c0-.98-.616-1.512-1.624-1.512h-2.898zm0-4.2v3.192h2.702c.924 0 1.484-.49 1.484-1.358v-.476c0-.868-.56-1.358-1.484-1.358h-2.702zM718.416 83h1.148v-9.772h-1.54l-2.814 5.264h-.056l-2.8-5.264h-1.54V83h1.148v-8.218h.07l.826 1.624 2.324 4.256 2.338-4.256.826-1.638h.07V83zm-121.114 18v-9.772h4.018c1.61 0 2.604.994 2.604 2.52 0 1.456-.938 1.974-1.582 2.072v.084c.7.042 1.918.644 1.918 2.268 0 1.61-1.078 2.828-2.52 2.828h-4.438zm1.176-4.536v3.5h2.898c1.008 0 1.624-.532 1.624-1.512v-.476c0-.98-.616-1.512-1.624-1.512h-2.898zm0-4.2v3.192h2.702c.924 0 1.484-.49 1.484-1.358v-.476c0-.868-.56-1.358-1.484-1.358h-2.702zM608.516 101v-.98h-1.064v-9.38h-1.12v9.198c0 .672.42 1.162 1.19 1.162h.994zm4.354.168c-1.932 0-3.262-1.484-3.262-3.78s1.33-3.78 3.262-3.78 3.262 1.484 3.262 3.78-1.33 3.78-3.262 3.78zm0-.994c1.204 0 2.058-.742 2.058-2.268V96.87c0-1.526-.854-2.268-2.058-2.268-1.204 0-2.058.742-2.058 2.268v1.036c0 1.526.854 2.268 2.058 2.268zm7.798.994c1.372 0 2.31-.672 2.772-1.708l-.812-.546c-.392.826-1.05 1.26-1.96 1.26-1.33 0-2.016-.91-2.016-2.17v-1.232c0-1.26.686-2.17 2.016-2.17.882 0 1.498.434 1.764 1.176l.938-.476c-.42-.994-1.274-1.694-2.702-1.694-2.03 0-3.22 1.47-3.22 3.78 0 2.31 1.19 3.78 3.22 3.78zm4.354-.168h1.12v-2.576l1.078-1.106 2.394 3.682h1.358l-2.94-4.368 2.674-2.856h-1.358l-2.044 2.198-1.106 1.232h-.056V90.64h-1.12V101zm10.066.168c1.372 0 2.31-.672 2.772-1.708l-.812-.546c-.392.826-1.05 1.26-1.96 1.26-1.33 0-2.016-.91-2.016-2.17v-1.232c0-1.26.686-2.17 2.016-2.17.882 0 1.498.434 1.764 1.176l.938-.476c-.42-.994-1.274-1.694-2.702-1.694-2.03 0-3.22 1.47-3.22 3.78 0 2.31 1.19 3.78 3.22 3.78zm4.354-.168h1.12v-5.012c0-.924.868-1.372 1.764-1.372 1.078 0 1.638.658 1.638 1.946V101h1.12v-4.634c0-1.75-.938-2.758-2.422-2.758-1.078 0-1.694.532-2.044 1.344h-.056V90.64h-1.12V101zm13.832 0h-.63c-.826 0-1.162-.504-1.246-1.176h-.07c-.308.882-1.078 1.344-2.086 1.344-1.526 0-2.422-.84-2.422-2.184 0-1.358.98-2.114 3.08-2.114h1.428v-.714c0-1.022-.56-1.582-1.708-1.582-.868 0-1.442.42-1.834 1.078l-.672-.63c.392-.77 1.26-1.414 2.562-1.414 1.736 0 2.772.91 2.772 2.436v3.976h.826v.98zm-3.85-.784c1.106 0 1.904-.574 1.904-1.316v-1.19h-1.484c-1.274 0-1.848.392-1.848 1.092v.294c0 .714.56 1.12 1.428 1.12zm6.006-8.134c.476 0 .686-.252.686-.63v-.182c0-.378-.21-.63-.686-.63-.476 0-.686.252-.686.63v.182c0 .378.21.63.686.63zm-.56 8.918h1.12v-7.224h-1.12V101zm4.62 0v-5.012c0-.924.868-1.372 1.764-1.372 1.078 0 1.638.658 1.638 1.946V101h1.12v-4.634c0-1.75-.938-2.758-2.422-2.758-1.078 0-1.694.532-2.044 1.344h-.056v-1.176h-1.12V101h1.12zm11.424 0h-1.176v-9.772h3.892c1.75 0 2.73 1.078 2.73 2.8 0 1.722-.98 2.8-2.73 2.8h-2.716V101zm0-8.736v3.528h2.716c.924 0 1.47-.504 1.47-1.4v-.728c0-.896-.546-1.4-1.47-1.4h-2.716zm9.38 8.736v-.98h-1.064v-9.38h-1.12v9.198c0 .672.42 1.162 1.19 1.162h.994zm7.504 0h-.63c-.826 0-1.162-.504-1.246-1.176h-.07c-.308.882-1.078 1.344-2.086 1.344-1.526 0-2.422-.84-2.422-2.184 0-1.358.98-2.114 3.08-2.114h1.428v-.714c0-1.022-.56-1.582-1.708-1.582-.868 0-1.442.42-1.834 1.078l-.672-.63c.392-.77 1.26-1.414 2.562-1.414 1.736 0 2.772.91 2.772 2.436v3.976h.826v.98zm-3.85-.784c1.106 0 1.904-.574 1.904-1.316v-1.19h-1.484c-1.274 0-1.848.392-1.848 1.092v.294c0 .714.56 1.12 1.428 1.12zm8.442.784v-.98h-1.47v-5.264h1.582v-.98h-1.582v-2.002h-1.008v1.344c0 .49-.154.658-.63.658h-.672v.98h1.19v5.054c0 .7.42 1.19 1.19 1.19h1.4zm2.31 0h1.12v-6.244h1.554v-.98h-1.554V91.62h1.554v-.98h-1.092c-1.064 0-1.582.686-1.582 1.68v1.456h-1.176v.98h1.176V101zm6.874.168c-1.932 0-3.262-1.484-3.262-3.78s1.33-3.78 3.262-3.78 3.262 1.484 3.262 3.78-1.33 3.78-3.262 3.78zm0-.994c1.204 0 2.058-.742 2.058-2.268V96.87c0-1.526-.854-2.268-2.058-2.268-1.204 0-2.058.742-2.058 2.268v1.036c0 1.526.854 2.268 2.058 2.268zm6.23.826v-4.9c0-.686.728-1.204 1.932-1.204h.658v-1.12h-.434c-1.176 0-1.834.644-2.086 1.33h-.07v-1.33h-1.12V101h1.12zm5.138 0v-5.012c0-.924.84-1.372 1.722-1.372 1.064 0 1.554.658 1.554 1.946V101h1.12v-5.012c0-.924.812-1.372 1.694-1.372 1.092 0 1.582.672 1.582 1.946V101h1.12v-4.634c0-1.75-.882-2.758-2.352-2.758-1.232 0-1.932.686-2.198 1.47h-.028c-.392-1.036-1.26-1.47-2.212-1.47-1.12 0-1.624.602-1.946 1.344h-.056v-1.176h-1.12V101h1.12zm15.526 0v-4.9c0-.686.728-1.204 1.932-1.204h.658v-1.12h-.434c-1.176 0-1.834.644-2.086 1.33h-.07v-1.33h-1.12V101h1.12zm8.47 0h1.12v-7.224h-1.12v4.998c0 .952-.868 1.386-1.75 1.386-1.078 0-1.652-.658-1.652-1.946v-4.438h-1.12v4.634c0 1.75.952 2.758 2.436 2.758 1.204 0 1.75-.658 2.03-1.344h.056V101zm4.62 0v-5.012c0-.924.868-1.372 1.764-1.372 1.078 0 1.638.658 1.638 1.946V101h1.12v-4.634c0-1.75-.938-2.758-2.422-2.758-1.078 0-1.694.532-2.044 1.344h-.056v-1.176h-1.12V101h1.12zm9.828 0v-.98h-1.47v-5.264h1.582v-.98h-1.582v-2.002h-1.008v1.344c0 .49-.154.658-.63.658h-.672v.98h1.19v5.054c0 .7.42 1.19 1.19 1.19h1.4zm2.478-8.918c.476 0 .686-.252.686-.63v-.182c0-.378-.21-.63-.686-.63-.476 0-.686.252-.686.63v.182c0 .378.21.63.686.63zm-.56 8.918h1.12v-7.224h-1.12V101zm4.62 0v-5.012c0-.924.84-1.372 1.722-1.372 1.064 0 1.554.658 1.554 1.946V101h1.12v-5.012c0-.924.812-1.372 1.694-1.372 1.092 0 1.582.672 1.582 1.946V101h1.12v-4.634c0-1.75-.882-2.758-2.352-2.758-1.232 0-1.932.686-2.198 1.47h-.028c-.392-1.036-1.26-1.47-2.212-1.47-1.12 0-1.624.602-1.946 1.344h-.056v-1.176h-1.12V101h1.12zm13.818.168c-1.96 0-3.248-1.484-3.248-3.78s1.288-3.78 3.248-3.78c1.932 0 3.122 1.484 3.122 3.528v.532h-5.194v.336c0 1.246.798 2.184 2.142 2.184.91 0 1.61-.448 1.988-1.246l.798.574c-.462.98-1.498 1.652-2.856 1.652zm0-6.622c-1.218 0-2.072.924-2.072 2.184v.098h3.99v-.154c0-1.274-.77-2.128-1.918-2.128z" fill="#19273C"/>
    <use fill="#000" filter="url(#a)" xlink:href="#b"/>
    <use fill="#0064FF" xlink:href="#b"/>
    <use fill="#000" filter="url(#c)" xlink:href="#d"/>
    <use fill="#0064FF" xlink:href="#d"/>
    <use fill="#000" filter="url(#e)" xlink:href="#f"/>
    <use fill="#0064FF" xlink:href="#f"/>
    <path d="M81.232 128.228v5.768c0 2.842.868 4.172 3.472 4.172s3.556-1.33 3.556-4.172v-5.768h-1.176v6.048c0 1.862-.602 2.842-2.338 2.842-1.736 0-2.338-.98-2.338-2.842v-6.048h-1.176zm11.62 9.94c1.652 0 2.674-.854 2.674-2.254 0-1.092-.616-1.792-2.212-2.03l-.56-.084c-.896-.14-1.386-.42-1.386-1.12 0-.686.49-1.12 1.414-1.12.924 0 1.54.434 1.862.882l.742-.672c-.588-.728-1.358-1.162-2.52-1.162-1.47 0-2.576.7-2.576 2.128 0 1.344.994 1.89 2.324 2.086l.574.084c.952.14 1.26.574 1.26 1.134 0 .742-.56 1.176-1.512 1.176-.91 0-1.582-.406-2.142-1.106l-.798.644c.644.854 1.526 1.414 2.856 1.414zm7.364 0c-1.96 0-3.248-1.484-3.248-3.78s1.288-3.78 3.248-3.78c1.932 0 3.122 1.484 3.122 3.528v.532h-5.194v.336c0 1.246.798 2.184 2.142 2.184.91 0 1.61-.448 1.988-1.246l.798.574c-.462.98-1.498 1.652-2.856 1.652zm0-6.622c-1.218 0-2.072.924-2.072 2.184v.098h3.99v-.154c0-1.274-.77-2.128-1.918-2.128zm12.04 6.454l3.29-9.772h-1.218l-1.624 4.928-1.106 3.668h-.07l-1.078-3.668-1.61-4.928h-1.26l3.248 9.772h1.428zm7.616.168c2.1 0 3.36-1.148 3.36-2.94 0-1.456-.826-2.296-2.73-2.73l-.798-.182c-1.232-.28-1.834-.7-1.834-1.624 0-1.05.77-1.596 2.016-1.596 1.134 0 1.876.462 2.408 1.204l.882-.644c-.728-1.036-1.764-1.596-3.234-1.596-1.918 0-3.234.938-3.234 2.674 0 1.498.98 2.282 2.758 2.688l.798.182c1.288.294 1.806.756 1.806 1.68 0 1.12-.756 1.848-2.156 1.848-1.134 0-1.946-.49-2.632-1.4l-.868.728c.784 1.064 1.89 1.708 3.458 1.708zm8.834 0c1.624 0 2.814-.854 3.43-2.226l-.938-.588c-.392 1.064-1.246 1.764-2.492 1.764-1.68 0-2.674-1.218-2.674-3.22v-1.456c0-2.002.994-3.332 2.674-3.332 1.204 0 2.016.658 2.408 1.666l.952-.574c-.616-1.358-1.736-2.142-3.36-2.142-2.464 0-3.934 1.848-3.934 5.11 0 3.262 1.47 4.998 3.934 4.998zm7.868 0c-1.932 0-3.262-1.484-3.262-3.78s1.33-3.78 3.262-3.78 3.262 1.484 3.262 3.78-1.33 3.78-3.262 3.78zm0-.994c1.204 0 2.058-.742 2.058-2.268v-1.036c0-1.526-.854-2.268-2.058-2.268-1.204 0-2.058.742-2.058 2.268v1.036c0 1.526.854 2.268 2.058 2.268zm9.73.826v-1.176h-.056c-.434.896-1.12 1.344-2.114 1.344-1.806 0-2.94-1.47-2.94-3.78 0-2.31 1.134-3.78 2.94-3.78.994 0 1.736.434 2.114 1.344h.056v-4.312h1.12V138h-1.12zm-1.862-.84c1.022 0 1.862-.532 1.862-1.47v-2.688c0-.798-.84-1.386-1.862-1.386-1.26 0-2.044.868-2.044 2.156v1.232c0 1.288.784 2.156 2.044 2.156zm8.078 1.008c-1.96 0-3.248-1.484-3.248-3.78s1.288-3.78 3.248-3.78c1.932 0 3.122 1.484 3.122 3.528v.532h-5.194v.336c0 1.246.798 2.184 2.142 2.184.91 0 1.61-.448 1.988-1.246l.798.574c-.462.98-1.498 1.652-2.856 1.652zm0-6.622c-1.218 0-2.072.924-2.072 2.184v.098h3.99v-.154c0-1.274-.77-2.128-1.918-2.128zm10.374 6.622c-1.512 0-2.604-1.008-2.604-2.968 0-2.422 1.512-4.592 3.724-4.592 1.512 0 2.604 1.008 2.604 2.968 0 2.422-1.512 4.592-3.724 4.592zm.14-.966c1.036 0 1.946-.784 2.24-2.254l.21-1.05c.042-.21.07-.42.07-.63 0-1.008-.588-1.694-1.68-1.694-1.036 0-1.946.784-2.24 2.254l-.21 1.05c-.042.21-.07.42-.07.63 0 1.008.588 1.694 1.68 1.694zm5.852.798l.868-4.298c.196-.98.924-1.82 2.254-1.82h.504l.21-1.106h-.448c-1.176 0-1.778.728-2.17 1.442h-.07l.308-1.442h-1.078L167.808 138h1.078zm-84.7 18v-.98h-1.47v-5.264h1.582v-.98h-1.582v-2.002h-1.008v1.344c0 .49-.154.658-.63.658h-.672v.98h1.19v5.054c0 .7.42 1.19 1.19 1.19h1.4zm1.918 0h1.12v-5.012c0-.924.868-1.372 1.764-1.372 1.078 0 1.638.658 1.638 1.946V156h1.12v-4.634c0-1.75-.938-2.758-2.422-2.758-1.078 0-1.694.532-2.044 1.344h-.056v-4.312h-1.12V156zm10.668.168c-1.96 0-3.248-1.484-3.248-3.78s1.288-3.78 3.248-3.78c1.932 0 3.122 1.484 3.122 3.528v.532H94.7v.336c0 1.246.798 2.184 2.142 2.184.91 0 1.61-.448 1.988-1.246l.798.574c-.462.98-1.498 1.652-2.856 1.652zm0-6.622c-1.218 0-2.072.924-2.072 2.184v.098h3.99v-.154c0-1.274-.77-2.128-1.918-2.128zm9.45 6.454h1.358l1.008-3.472.616-2.198h.028l.63 2.198L110.87 156h1.386l1.918-7.224h-1.05l-.784 3.122-.742 3.164h-.028l-.896-3.164-.938-3.122h-.994l-.91 3.122-.882 3.164h-.028l-.77-3.164-.77-3.122h-1.092l1.932 7.224zm12.292.168c-1.96 0-3.248-1.484-3.248-3.78s1.288-3.78 3.248-3.78c1.932 0 3.122 1.484 3.122 3.528v.532h-5.194v.336c0 1.246.798 2.184 2.142 2.184.91 0 1.61-.448 1.988-1.246l.798.574c-.462.98-1.498 1.652-2.856 1.652zm0-6.622c-1.218 0-2.072.924-2.072 2.184v.098h3.99v-.154c0-1.274-.77-2.128-1.918-2.128zm4.97 6.454v-10.36h1.12v4.312h.056c.378-.91 1.12-1.344 2.114-1.344 1.806 0 2.94 1.47 2.94 3.78 0 2.31-1.134 3.78-2.94 3.78-.994 0-1.68-.448-2.114-1.344h-.056V156h-1.12zm2.982-.84c1.26 0 2.044-.868 2.044-2.156v-1.232c0-1.288-.784-2.156-2.044-2.156-1.022 0-1.862.588-1.862 1.386v2.688c0 .938.84 1.47 1.862 1.47zm14.322.84h-.63c-.826 0-1.162-.504-1.246-1.176h-.07c-.308.882-1.078 1.344-2.086 1.344-1.526 0-2.422-.84-2.422-2.184 0-1.358.98-2.114 3.08-2.114h1.428v-.714c0-1.022-.56-1.582-1.708-1.582-.868 0-1.442.42-1.834 1.078l-.672-.63c.392-.77 1.26-1.414 2.562-1.414 1.736 0 2.772.91 2.772 2.436v3.976h.826v.98zm-3.85-.784c1.106 0 1.904-.574 1.904-1.316v-1.19h-1.484c-1.274 0-1.848.392-1.848 1.092v.294c0 .714.56 1.12 1.428 1.12zm5.446 3.584v-10.024h1.12v1.176h.056c.378-.91 1.12-1.344 2.114-1.344 1.806 0 2.94 1.47 2.94 3.78 0 2.31-1.134 3.78-2.94 3.78-.994 0-1.68-.448-2.114-1.344h-.056v3.976h-1.12zm2.982-3.64c1.26 0 2.044-.868 2.044-2.156v-1.232c0-1.288-.784-2.156-2.044-2.156-1.022 0-1.862.588-1.862 1.386v2.688c0 .938.84 1.47 1.862 1.47zm5.138 3.64v-10.024h1.12v1.176h.056c.378-.91 1.12-1.344 2.114-1.344 1.806 0 2.94 1.47 2.94 3.78 0 2.31-1.134 3.78-2.94 3.78-.994 0-1.68-.448-2.114-1.344h-.056v3.976h-1.12zm2.982-3.64c1.26 0 2.044-.868 2.044-2.156v-1.232c0-1.288-.784-2.156-2.044-2.156-1.022 0-1.862.588-1.862 1.386v2.688c0 .938.84 1.47 1.862 1.47zm192.746-26.932v5.768c0 2.842.868 4.172 3.472 4.172s3.556-1.33 3.556-4.172v-5.768h-1.176v6.048c0 1.862-.602 2.842-2.338 2.842-1.736 0-2.338-.98-2.338-2.842v-6.048h-1.176zm11.62 9.94c1.652 0 2.674-.854 2.674-2.254 0-1.092-.616-1.792-2.212-2.03l-.56-.084c-.896-.14-1.386-.42-1.386-1.12 0-.686.49-1.12 1.414-1.12.924 0 1.54.434 1.862.882l.742-.672c-.588-.728-1.358-1.162-2.52-1.162-1.47 0-2.576.7-2.576 2.128 0 1.344.994 1.89 2.324 2.086l.574.084c.952.14 1.26.574 1.26 1.134 0 .742-.56 1.176-1.512 1.176-.91 0-1.582-.406-2.142-1.106l-.798.644c.644.854 1.526 1.414 2.856 1.414zm7.364 0c-1.96 0-3.248-1.484-3.248-3.78s1.288-3.78 3.248-3.78c1.932 0 3.122 1.484 3.122 3.528v.532h-5.194v.336c0 1.246.798 2.184 2.142 2.184.91 0 1.61-.448 1.988-1.246l.798.574c-.462.98-1.498 1.652-2.856 1.652zm0-6.622c-1.218 0-2.072.924-2.072 2.184v.098h3.99v-.154c0-1.274-.77-2.128-1.918-2.128zm11.83 6.622c1.624 0 2.814-.854 3.43-2.226l-.938-.588c-.392 1.064-1.246 1.764-2.492 1.764-1.68 0-2.674-1.218-2.674-3.22v-1.456c0-2.002.994-3.332 2.674-3.332 1.204 0 2.016.658 2.408 1.666l.952-.574c-.616-1.358-1.736-2.142-3.36-2.142-2.464 0-3.934 1.848-3.934 5.11 0 3.262 1.47 4.998 3.934 4.998zM387.63 138v-1.036h-4.158v-8.736h-1.176V138h5.334zm5.138 0v-.98h-1.372v-7.812h1.372v-.98h-3.92v.98h1.372v7.812h-1.372v.98h3.92zm7.434.168c-1.512 0-2.604-1.008-2.604-2.968 0-2.422 1.512-4.592 3.724-4.592 1.512 0 2.604 1.008 2.604 2.968 0 2.422-1.512 4.592-3.724 4.592zm.14-.966c1.036 0 1.946-.784 2.24-2.254l.21-1.05c.042-.21.07-.42.07-.63 0-1.008-.588-1.694-1.68-1.694-1.036 0-1.946.784-2.24 2.254l-.21 1.05c-.042.21-.07.42-.07.63 0 1.008.588 1.694 1.68 1.694zm5.852.798l.868-4.298c.196-.98.924-1.82 2.254-1.82h.504l.21-1.106h-.448c-1.176 0-1.778.728-2.17 1.442h-.07l.308-1.442h-1.078L405.116 138h1.078zm-57.008 18v-.98h-1.47v-5.264h1.582v-.98h-1.582v-2.002h-1.008v1.344c0 .49-.154.658-.63.658h-.672v.98h1.19v5.054c0 .7.42 1.19 1.19 1.19h1.4zm1.918 0h1.12v-5.012c0-.924.868-1.372 1.764-1.372 1.078 0 1.638.658 1.638 1.946V156h1.12v-4.634c0-1.75-.938-2.758-2.422-2.758-1.078 0-1.694.532-2.044 1.344h-.056v-4.312h-1.12V156zm10.668.168c-1.96 0-3.248-1.484-3.248-3.78s1.288-3.78 3.248-3.78c1.932 0 3.122 1.484 3.122 3.528v.532H359.7v.336c0 1.246.798 2.184 2.142 2.184.91 0 1.61-.448 1.988-1.246l.798.574c-.462.98-1.498 1.652-2.856 1.652zm0-6.622c-1.218 0-2.072.924-2.072 2.184v.098h3.99v-.154c0-1.274-.77-2.128-1.918-2.128zm9.45 6.454h1.358l1.008-3.472.616-2.198h.028l.63 2.198L375.87 156h1.386l1.918-7.224h-1.05l-.784 3.122-.742 3.164h-.028l-.896-3.164-.938-3.122h-.994l-.91 3.122-.882 3.164h-.028l-.77-3.164-.77-3.122h-1.092l1.932 7.224zm12.292.168c-1.96 0-3.248-1.484-3.248-3.78s1.288-3.78 3.248-3.78c1.932 0 3.122 1.484 3.122 3.528v.532h-5.194v.336c0 1.246.798 2.184 2.142 2.184.91 0 1.61-.448 1.988-1.246l.798.574c-.462.98-1.498 1.652-2.856 1.652zm0-6.622c-1.218 0-2.072.924-2.072 2.184v.098h3.99v-.154c0-1.274-.77-2.128-1.918-2.128zm4.97 6.454v-10.36h1.12v4.312h.056c.378-.91 1.12-1.344 2.114-1.344 1.806 0 2.94 1.47 2.94 3.78 0 2.31-1.134 3.78-2.94 3.78-.994 0-1.68-.448-2.114-1.344h-.056V156h-1.12zm2.982-.84c1.26 0 2.044-.868 2.044-2.156v-1.232c0-1.288-.784-2.156-2.044-2.156-1.022 0-1.862.588-1.862 1.386v2.688c0 .938.84 1.47 1.862 1.47zm14.322.84h-.63c-.826 0-1.162-.504-1.246-1.176h-.07c-.308.882-1.078 1.344-2.086 1.344-1.526 0-2.422-.84-2.422-2.184 0-1.358.98-2.114 3.08-2.114h1.428v-.714c0-1.022-.56-1.582-1.708-1.582-.868 0-1.442.42-1.834 1.078l-.672-.63c.392-.77 1.26-1.414 2.562-1.414 1.736 0 2.772.91 2.772 2.436v3.976h.826v.98zm-3.85-.784c1.106 0 1.904-.574 1.904-1.316v-1.19h-1.484c-1.274 0-1.848.392-1.848 1.092v.294c0 .714.56 1.12 1.428 1.12zm5.446 3.584v-10.024h1.12v1.176h.056c.378-.91 1.12-1.344 2.114-1.344 1.806 0 2.94 1.47 2.94 3.78 0 2.31-1.134 3.78-2.94 3.78-.994 0-1.68-.448-2.114-1.344h-.056v3.976h-1.12zm2.982-3.64c1.26 0 2.044-.868 2.044-2.156v-1.232c0-1.288-.784-2.156-2.044-2.156-1.022 0-1.862.588-1.862 1.386v2.688c0 .938.84 1.47 1.862 1.47zm5.138 3.64v-10.024h1.12v1.176h.056c.378-.91 1.12-1.344 2.114-1.344 1.806 0 2.94 1.47 2.94 3.78 0 2.31-1.134 3.78-2.94 3.78-.994 0-1.68-.448-2.114-1.344h-.056v3.976h-1.12zm2.982-3.64c1.26 0 2.044-.868 2.044-2.156v-1.232c0-1.288-.784-2.156-2.044-2.156-1.022 0-1.862.588-1.862 1.386v2.688c0 .938.84 1.47 1.862 1.47zM601.76 138v-.98h-1.372v-7.812h1.372v-.98h-3.92v.98h1.372v7.812h-1.372v.98h3.92zm3.15 0v-5.012c0-.924.868-1.372 1.764-1.372 1.078 0 1.638.658 1.638 1.946V138h1.12v-4.634c0-1.75-.938-2.758-2.422-2.758-1.078 0-1.694.532-2.044 1.344h-.056v-1.176h-1.12V138h1.12zm12.32 0v-.98h-1.064v-9.38h-1.12v9.198c0 .672.42 1.162 1.19 1.162h.994zm4.354.168c-1.932 0-3.262-1.484-3.262-3.78s1.33-3.78 3.262-3.78 3.262 1.484 3.262 3.78-1.33 3.78-3.262 3.78zm0-.994c1.204 0 2.058-.742 2.058-2.268v-1.036c0-1.526-.854-2.268-2.058-2.268-1.204 0-2.058.742-2.058 2.268v1.036c0 1.526.854 2.268 2.058 2.268zm7.798.994c1.372 0 2.31-.672 2.772-1.708l-.812-.546c-.392.826-1.05 1.26-1.96 1.26-1.33 0-2.016-.91-2.016-2.17v-1.232c0-1.26.686-2.17 2.016-2.17.882 0 1.498.434 1.764 1.176l.938-.476c-.42-.994-1.274-1.694-2.702-1.694-2.03 0-3.22 1.47-3.22 3.78 0 2.31 1.19 3.78 3.22 3.78zm10.234-.168h-.63c-.826 0-1.162-.504-1.246-1.176h-.07c-.308.882-1.078 1.344-2.086 1.344-1.526 0-2.422-.84-2.422-2.184 0-1.358.98-2.114 3.08-2.114h1.428v-.714c0-1.022-.56-1.582-1.708-1.582-.868 0-1.442.42-1.834 1.078l-.672-.63c.392-.77 1.26-1.414 2.562-1.414 1.736 0 2.772.91 2.772 2.436v3.976h.826v.98zm-3.85-.784c1.106 0 1.904-.574 1.904-1.316v-1.19h-1.484c-1.274 0-1.848.392-1.848 1.092v.294c0 .714.56 1.12 1.428 1.12zm7.63.784v-.98h-1.064v-9.38h-1.12v9.198c0 .672.42 1.162 1.19 1.162h.994zm9.548 0v-1.176h-.056c-.434.896-1.12 1.344-2.114 1.344-1.806 0-2.94-1.47-2.94-3.78 0-2.31 1.134-3.78 2.94-3.78.994 0 1.736.434 2.114 1.344h.056v-4.312h1.12V138h-1.12zm-1.862-.84c1.022 0 1.862-.532 1.862-1.47v-2.688c0-.798-.84-1.386-1.862-1.386-1.26 0-2.044.868-2.044 2.156v1.232c0 1.288.784 2.156 2.044 2.156zm8.078 1.008c-1.96 0-3.248-1.484-3.248-3.78s1.288-3.78 3.248-3.78c1.932 0 3.122 1.484 3.122 3.528v.532h-5.194v.336c0 1.246.798 2.184 2.142 2.184.91 0 1.61-.448 1.988-1.246l.798.574c-.462.98-1.498 1.652-2.856 1.652zm0-6.622c-1.218 0-2.072.924-2.072 2.184v.098h3.99v-.154c0-1.274-.77-2.128-1.918-2.128zm7.868 6.454l2.548-7.224h-1.078l-1.288 3.584-.784 2.464h-.07l-.784-2.464-1.26-3.584h-1.12l2.534 7.224h1.302zm10.01.168c-1.96 0-3.248-1.484-3.248-3.78s1.288-3.78 3.248-3.78c1.932 0 3.122 1.484 3.122 3.528v.532h-5.194v.336c0 1.246.798 2.184 2.142 2.184.91 0 1.61-.448 1.988-1.246l.798.574c-.462.98-1.498 1.652-2.856 1.652zm0-6.622c-1.218 0-2.072.924-2.072 2.184v.098h3.99v-.154c0-1.274-.77-2.128-1.918-2.128zm6.09 6.454v-5.012c0-.924.868-1.372 1.764-1.372 1.078 0 1.638.658 1.638 1.946V138h1.12v-4.634c0-1.75-.938-2.758-2.422-2.758-1.078 0-1.694.532-2.044 1.344h-.056v-1.176h-1.12V138h1.12zm9.73 0l2.548-7.224h-1.078l-1.288 3.584-.784 2.464h-.07l-.784-2.464-1.26-3.584h-1.12l2.534 7.224h1.302zm4.55-8.918c.476 0 .686-.252.686-.63v-.182c0-.378-.21-.63-.686-.63-.476 0-.686.252-.686.63v.182c0 .378.21.63.686.63zm-.56 8.918h1.12v-7.224h-1.12V138zm4.62 0v-4.9c0-.686.728-1.204 1.932-1.204h.658v-1.12h-.434c-1.176 0-1.834.644-2.086 1.33h-.07v-1.33h-1.12V138h1.12zm6.748.168c-1.932 0-3.262-1.484-3.262-3.78s1.33-3.78 3.262-3.78 3.262 1.484 3.262 3.78-1.33 3.78-3.262 3.78zm0-.994c1.204 0 2.058-.742 2.058-2.268v-1.036c0-1.526-.854-2.268-2.058-2.268-1.204 0-2.058.742-2.058 2.268v1.036c0 1.526.854 2.268 2.058 2.268zm6.23.826v-5.012c0-.924.868-1.372 1.764-1.372 1.078 0 1.638.658 1.638 1.946V138h1.12v-4.634c0-1.75-.938-2.758-2.422-2.758-1.078 0-1.694.532-2.044 1.344h-.056v-1.176h-1.12V138h1.12zm7.952 0v-5.012c0-.924.84-1.372 1.722-1.372 1.064 0 1.554.658 1.554 1.946V138h1.12v-5.012c0-.924.812-1.372 1.694-1.372 1.092 0 1.582.672 1.582 1.946V138h1.12v-4.634c0-1.75-.882-2.758-2.352-2.758-1.232 0-1.932.686-2.198 1.47h-.028c-.392-1.036-1.26-1.47-2.212-1.47-1.12 0-1.624.602-1.946 1.344h-.056v-1.176h-1.12V138h1.12zm13.818.168c-1.96 0-3.248-1.484-3.248-3.78s1.288-3.78 3.248-3.78c1.932 0 3.122 1.484 3.122 3.528v.532h-5.194v.336c0 1.246.798 2.184 2.142 2.184.91 0 1.61-.448 1.988-1.246l.798.574c-.462.98-1.498 1.652-2.856 1.652zm0-6.622c-1.218 0-2.072.924-2.072 2.184v.098h3.99v-.154c0-1.274-.77-2.128-1.918-2.128zm6.09 6.454v-5.012c0-.924.868-1.372 1.764-1.372 1.078 0 1.638.658 1.638 1.946V138h1.12v-4.634c0-1.75-.938-2.758-2.422-2.758-1.078 0-1.694.532-2.044 1.344h-.056v-1.176h-1.12V138h1.12zm9.828 0v-.98h-1.47v-5.264h1.582v-.98h-1.582v-2.002h-1.008v1.344c0 .49-.154.658-.63.658h-.672v.98h1.19v5.054c0 .7.42 1.19 1.19 1.19h1.4zm7.322.168c-1.512 0-2.604-1.008-2.604-2.968 0-2.422 1.512-4.592 3.724-4.592 1.512 0 2.604 1.008 2.604 2.968 0 2.422-1.512 4.592-3.724 4.592zm.14-.966c1.036 0 1.946-.784 2.24-2.254l.21-1.05c.042-.21.07-.42.07-.63 0-1.008-.588-1.694-1.68-1.694-1.036 0-1.946.784-2.24 2.254l-.21 1.05c-.042.21-.07.42-.07.63 0 1.008.588 1.694 1.68 1.694zm5.852.798l.868-4.298c.196-.98.924-1.82 2.254-1.82h.504l.21-1.106h-.448c-1.176 0-1.778.728-2.17 1.442h-.07l.308-1.442h-1.078L764.37 138h1.078zm-164.402 18.168c2.1 0 3.36-1.148 3.36-2.94 0-1.456-.826-2.296-2.73-2.73l-.798-.182c-1.232-.28-1.834-.7-1.834-1.624 0-1.05.77-1.596 2.016-1.596 1.134 0 1.876.462 2.408 1.204l.882-.644c-.728-1.036-1.764-1.596-3.234-1.596-1.918 0-3.234.938-3.234 2.674 0 1.498.98 2.282 2.758 2.688l.798.182c1.288.294 1.806.756 1.806 1.68 0 1.12-.756 1.848-2.156 1.848-1.134 0-1.946-.49-2.632-1.4l-.868.728c.784 1.064 1.89 1.708 3.458 1.708zm7.994 0c-1.96 0-3.248-1.484-3.248-3.78s1.288-3.78 3.248-3.78c1.932 0 3.122 1.484 3.122 3.528v.532h-5.194v.336c0 1.246.798 2.184 2.142 2.184.91 0 1.61-.448 1.988-1.246l.798.574c-.462.98-1.498 1.652-2.856 1.652zm0-6.622c-1.218 0-2.072.924-2.072 2.184v.098h3.99v-.154c0-1.274-.77-2.128-1.918-2.128zm6.09 6.454v-4.9c0-.686.728-1.204 1.932-1.204h.658v-1.12h-.434c-1.176 0-1.834.644-2.086 1.33h-.07v-1.33h-1.12V156h1.12zm6.916 0l2.548-7.224h-1.078l-1.288 3.584-.784 2.464h-.07l-.784-2.464-1.26-3.584h-1.12l2.534 7.224h1.302zm4.55-8.918c.476 0 .686-.252.686-.63v-.182c0-.378-.21-.63-.686-.63-.476 0-.686.252-.686.63v.182c0 .378.21.63.686.63zm-.56 8.918h1.12v-7.224h-1.12V156zm6.188.168c1.372 0 2.31-.672 2.772-1.708l-.812-.546c-.392.826-1.05 1.26-1.96 1.26-1.33 0-2.016-.91-2.016-2.17v-1.232c0-1.26.686-2.17 2.016-2.17.882 0 1.498.434 1.764 1.176l.938-.476c-.42-.994-1.274-1.694-2.702-1.694-2.03 0-3.22 1.47-3.22 3.78 0 2.31 1.19 3.78 3.22 3.78zm7.07 0c-1.96 0-3.248-1.484-3.248-3.78s1.288-3.78 3.248-3.78c1.932 0 3.122 1.484 3.122 3.528v.532h-5.194v.336c0 1.246.798 2.184 2.142 2.184.91 0 1.61-.448 1.988-1.246l.798.574c-.462.98-1.498 1.652-2.856 1.652zm0-6.622c-1.218 0-2.072.924-2.072 2.184v.098h3.99v-.154c0-1.274-.77-2.128-1.918-2.128zm11.004 6.622c-1.932 0-3.262-1.484-3.262-3.78s1.33-3.78 3.262-3.78 3.262 1.484 3.262 3.78-1.33 3.78-3.262 3.78zm0-.994c1.204 0 2.058-.742 2.058-2.268v-1.036c0-1.526-.854-2.268-2.058-2.268-1.204 0-2.058.742-2.058 2.268v1.036c0 1.526.854 2.268 2.058 2.268zm6.23.826v-5.012c0-.924.868-1.372 1.764-1.372 1.078 0 1.638.658 1.638 1.946V156h1.12v-4.634c0-1.75-.938-2.758-2.422-2.758-1.078 0-1.694.532-2.044 1.344h-.056v-1.176h-1.12V156h1.12zm13.706 0v-.98h-1.372v-7.812h1.372v-.98h-3.92v.98h1.372v7.812h-1.372v.98h3.92zm2.142 0v-9.772h4.018c1.61 0 2.604.994 2.604 2.52 0 1.456-.938 1.974-1.582 2.072v.084c.7.042 1.918.644 1.918 2.268 0 1.61-1.078 2.828-2.52 2.828h-4.438zm1.176-4.536v3.5h2.898c1.008 0 1.624-.532 1.624-1.512v-.476c0-.98-.616-1.512-1.624-1.512h-2.898zm0-4.2v3.192h2.702c.924 0 1.484-.49 1.484-1.358v-.476c0-.868-.56-1.358-1.484-1.358h-2.702zM689.12 156h1.148v-9.772h-1.54l-2.814 5.264h-.056l-2.8-5.264h-1.54V156h1.148v-8.218h.07l.826 1.624 2.324 4.256 2.338-4.256.826-1.638h.07V156zm10.5.168c1.624 0 2.814-.854 3.43-2.226l-.938-.588c-.392 1.064-1.246 1.764-2.492 1.764-1.68 0-2.674-1.218-2.674-3.22v-1.456c0-2.002.994-3.332 2.674-3.332 1.204 0 2.016.658 2.408 1.666l.952-.574c-.616-1.358-1.736-2.142-3.36-2.142-2.464 0-3.934 1.848-3.934 5.11 0 3.262 1.47 4.998 3.934 4.998zm7.322-.168v-.98h-1.064v-9.38h-1.12v9.198c0 .672.42 1.162 1.19 1.162h.994zm4.354.168c-1.932 0-3.262-1.484-3.262-3.78s1.33-3.78 3.262-3.78 3.262 1.484 3.262 3.78-1.33 3.78-3.262 3.78zm0-.994c1.204 0 2.058-.742 2.058-2.268v-1.036c0-1.526-.854-2.268-2.058-2.268-1.204 0-2.058.742-2.058 2.268v1.036c0 1.526.854 2.268 2.058 2.268zm9.562.826h1.12v-7.224h-1.12v4.998c0 .952-.868 1.386-1.75 1.386-1.078 0-1.652-.658-1.652-1.946v-4.438h-1.12v4.634c0 1.75.952 2.758 2.436 2.758 1.204 0 1.75-.658 2.03-1.344h.056V156zm8.12 0v-1.176h-.056c-.434.896-1.12 1.344-2.114 1.344-1.806 0-2.94-1.47-2.94-3.78 0-2.31 1.134-3.78 2.94-3.78.994 0 1.736.434 2.114 1.344h.056v-4.312h1.12V156h-1.12zm-1.862-.84c1.022 0 1.862-.532 1.862-1.47v-2.688c0-.798-.84-1.386-1.862-1.386-1.26 0-2.044.868-2.044 2.156v1.232c0 1.288.784 2.156 2.044 2.156z" fill="#FFF"/>
    <circle stroke="#003BC9" stroke-width="2" cx="279.5" cy="88.5" r="17.5"/>
    <path fill="#003BC9" d="M277.567 81L276 82.567l5.865 5.866L276 94.298l1.567 1.568L285 88.433z"/>
    <circle stroke="#69A6FF" stroke-width="2" transform="matrix(-1 0 0 1 825 0)" cx="412.5" cy="198.5" r="17.5"/>
    <path fill="#69A6FF" d="M414.433 191l1.567 1.567-5.865 5.866 5.865 5.865-1.567 1.568-7.433-7.433z"/>
    <circle stroke="#003BC9" stroke-width="2" cx="538.5" cy="88.5" r="17.5"/>
    <path fill="#003BC9" d="M536.567 81L535 82.567l5.865 5.866L535 94.298l1.567 1.568L544 88.433z"/>
  </g>
</svg>
